<svg xmlns="http://www.w3.org/2000/svg" xmlns:xlink="http://www.w3.org/1999/xlink" width="894.534" height="488.006" viewBox="0 0 894.534 488.006">
  <defs>
    <filter id="Path_3654" x="832.144" y="340.898" width="62.39" height="58.065" filterUnits="userSpaceOnUse">
      <feOffset dy="3" input="SourceAlpha"/>
      <feGaussianBlur stdDeviation="3" result="blur"/>
      <feFlood flood-opacity="0.161"/>
      <feComposite operator="in" in2="blur"/>
      <feComposite in="SourceGraphic"/>
    </filter>
    <filter id="Path_3655" x="786.98" y="334.457" width="56.253" height="48.991" filterUnits="userSpaceOnUse">
      <feOffset dy="3" input="SourceAlpha"/>
      <feGaussianBlur stdDeviation="3" result="blur-2"/>
      <feFlood flood-opacity="0.161"/>
      <feComposite operator="in" in2="blur-2"/>
      <feComposite in="SourceGraphic"/>
    </filter>
    <filter id="Path_3656" x="736.551" y="333.569" width="59.127" height="52.937" filterUnits="userSpaceOnUse">
      <feOffset dy="3" input="SourceAlpha"/>
      <feGaussianBlur stdDeviation="3" result="blur-3"/>
      <feFlood flood-opacity="0.161"/>
      <feComposite operator="in" in2="blur-3"/>
      <feComposite in="SourceGraphic"/>
    </filter>
    <filter id="Path_3657" x="684.987" y="343.254" width="63.001" height="59.215" filterUnits="userSpaceOnUse">
      <feOffset dy="3" input="SourceAlpha"/>
      <feGaussianBlur stdDeviation="3" result="blur-4"/>
      <feFlood flood-opacity="0.161"/>
      <feComposite operator="in" in2="blur-4"/>
      <feComposite in="SourceGraphic"/>
    </filter>
    <filter id="Path_3658" x="639.767" y="370.89" width="64.198" height="62.658" filterUnits="userSpaceOnUse">
      <feOffset dy="3" input="SourceAlpha"/>
      <feGaussianBlur stdDeviation="3" result="blur-5"/>
      <feFlood flood-opacity="0.161"/>
      <feComposite operator="in" in2="blur-5"/>
      <feComposite in="SourceGraphic"/>
    </filter>
    <filter id="Path_3659" x="592.617" y="405.896" width="64.198" height="62.658" filterUnits="userSpaceOnUse">
      <feOffset dy="3" input="SourceAlpha"/>
      <feGaussianBlur stdDeviation="3" result="blur-6"/>
      <feFlood flood-opacity="0.161"/>
      <feComposite operator="in" in2="blur-6"/>
      <feComposite in="SourceGraphic"/>
    </filter>
    <filter id="Path_3660" x="541.174" y="434.547" width="59.488" height="53.459" filterUnits="userSpaceOnUse">
      <feOffset dy="3" input="SourceAlpha"/>
      <feGaussianBlur stdDeviation="3" result="blur-7"/>
      <feFlood flood-opacity="0.161"/>
      <feComposite operator="in" in2="blur-7"/>
      <feComposite in="SourceGraphic"/>
    </filter>
    <filter id="Path_3661" x="483.237" y="422.838" width="61.387" height="56.362" filterUnits="userSpaceOnUse">
      <feOffset dy="3" input="SourceAlpha"/>
      <feGaussianBlur stdDeviation="3" result="blur-8"/>
      <feFlood flood-opacity="0.161"/>
      <feComposite operator="in" in2="blur-8"/>
      <feComposite in="SourceGraphic"/>
    </filter>
    <filter id="Path_3662" x="443.648" y="381.741" width="59.215" height="63.001" filterUnits="userSpaceOnUse">
      <feOffset dy="3" input="SourceAlpha"/>
      <feGaussianBlur stdDeviation="3" result="blur-9"/>
      <feFlood flood-opacity="0.161"/>
      <feComposite operator="in" in2="blur-9"/>
      <feComposite in="SourceGraphic"/>
    </filter>
    <filter id="Path_3663" x="421.288" y="326.741" width="59.215" height="63.001" filterUnits="userSpaceOnUse">
      <feOffset dy="3" input="SourceAlpha"/>
      <feGaussianBlur stdDeviation="3" result="blur-10"/>
      <feFlood flood-opacity="0.161"/>
      <feComposite operator="in" in2="blur-10"/>
      <feComposite in="SourceGraphic"/>
    </filter>
    <filter id="Path_3664" x="398.928" y="274.741" width="59.215" height="63.001" filterUnits="userSpaceOnUse">
      <feOffset dy="3" input="SourceAlpha"/>
      <feGaussianBlur stdDeviation="3" result="blur-11"/>
      <feFlood flood-opacity="0.161"/>
      <feComposite operator="in" in2="blur-11"/>
      <feComposite in="SourceGraphic"/>
    </filter>
    <filter id="Path_3665" x="368.902" y="226.443" width="63.045" height="64.202" filterUnits="userSpaceOnUse">
      <feOffset dy="3" input="SourceAlpha"/>
      <feGaussianBlur stdDeviation="3" result="blur-12"/>
      <feFlood flood-opacity="0.161"/>
      <feComposite operator="in" in2="blur-12"/>
      <feComposite in="SourceGraphic"/>
    </filter>
    <filter id="Path_3666" x="322.623" y="200.141" width="63.34" height="59.919" filterUnits="userSpaceOnUse">
      <feOffset dy="3" input="SourceAlpha"/>
      <feGaussianBlur stdDeviation="3" result="blur-13"/>
      <feFlood flood-opacity="0.161"/>
      <feComposite operator="in" in2="blur-13"/>
      <feComposite in="SourceGraphic"/>
    </filter>
    <filter id="Path_3667" x="272.113" y="197.946" width="56.253" height="48.991" filterUnits="userSpaceOnUse">
      <feOffset dy="3" input="SourceAlpha"/>
      <feGaussianBlur stdDeviation="3" result="blur-14"/>
      <feFlood flood-opacity="0.161"/>
      <feComposite operator="in" in2="blur-14"/>
      <feComposite in="SourceGraphic"/>
    </filter>
    <filter id="Path_3668" x="210.684" y="190.101" width="59.127" height="52.937" filterUnits="userSpaceOnUse">
      <feOffset dy="3" input="SourceAlpha"/>
      <feGaussianBlur stdDeviation="3" result="blur-15"/>
      <feFlood flood-opacity="0.161"/>
      <feComposite operator="in" in2="blur-15"/>
      <feComposite in="SourceGraphic"/>
    </filter>
    <filter id="Path_3669" x="158.311" y="175.741" width="61.916" height="57.237" filterUnits="userSpaceOnUse">
      <feOffset dy="3" input="SourceAlpha"/>
      <feGaussianBlur stdDeviation="3" result="blur-16"/>
      <feFlood flood-opacity="0.161"/>
      <feComposite operator="in" in2="blur-16"/>
      <feComposite in="SourceGraphic"/>
    </filter>
    <filter id="Path_3670" x="106.38" y="134.348" width="64.04" height="63.653" filterUnits="userSpaceOnUse">
      <feOffset dy="3" input="SourceAlpha"/>
      <feGaussianBlur stdDeviation="3" result="blur-17"/>
      <feFlood flood-opacity="0.161"/>
      <feComposite operator="in" in2="blur-17"/>
      <feComposite in="SourceGraphic"/>
    </filter>
    <filter id="Path_3671" x="72.359" y="86.085" width="61.721" height="64.023" filterUnits="userSpaceOnUse">
      <feOffset dy="3" input="SourceAlpha"/>
      <feGaussianBlur stdDeviation="3" result="blur-18"/>
      <feFlood flood-opacity="0.161"/>
      <feComposite operator="in" in2="blur-18"/>
      <feComposite in="SourceGraphic"/>
    </filter>
    <filter id="Path_3672" x="43.359" y="37.085" width="61.721" height="64.023" filterUnits="userSpaceOnUse">
      <feOffset dy="3" input="SourceAlpha"/>
      <feGaussianBlur stdDeviation="3" result="blur-19"/>
      <feFlood flood-opacity="0.161"/>
      <feComposite operator="in" in2="blur-19"/>
      <feComposite in="SourceGraphic"/>
    </filter>
    <filter id="Path_3673" x="0" y="0" width="64.176" height="62.444" filterUnits="userSpaceOnUse">
      <feOffset dy="3" input="SourceAlpha"/>
      <feGaussianBlur stdDeviation="3" result="blur-20"/>
      <feFlood flood-opacity="0.161"/>
      <feComposite operator="in" in2="blur-20"/>
      <feComposite in="SourceGraphic"/>
    </filter>
  </defs>
  <g id="Group_1118" data-name="Group 1118" transform="translate(-90.071 -53.417)">
    <g transform="matrix(1, 0, 0, 1, 90.07, 53.42)" filter="url(#Path_3654)">
      <path id="Path_3654-2" data-name="Path 3654" d="M21.7,0,0,12.53l21.7,12.53V18.968H33.352V6.094H21.7Z" transform="translate(853.03 349.25) rotate(22)" fill="#eb3d16" stroke="#fff" stroke-width="2"/>
    </g>
    <g transform="matrix(1, 0, 0, 1, 90.07, 53.42)" filter="url(#Path_3655)">
      <path id="Path_3655-2" data-name="Path 3655" d="M21.7,0,0,12.53l21.7,12.53V18.968H33.352V6.094H21.7Z" transform="matrix(1, 0.07, -0.07, 1, 799.84, 342.32)" fill="#eb3d16" stroke="#fff" stroke-width="2"/>
    </g>
    <g transform="matrix(1, 0, 0, 1, 90.07, 53.42)" filter="url(#Path_3656)">
      <path id="Path_3656-2" data-name="Path 3656" d="M21.7,0,0,12.53l21.7,12.53V18.968H33.352V6.094H21.7Z" transform="matrix(0.98, -0.19, 0.19, 0.98, 747.84, 347.82)" fill="#eb3d16" stroke="#fff" stroke-width="2"/>
    </g>
    <g transform="matrix(1, 0, 0, 1, 90.07, 53.42)" filter="url(#Path_3657)">
      <path id="Path_3657-2" data-name="Path 3657" d="M21.7,0,0,12.53l21.7,12.53V18.968H33.352V6.094H21.7Z" transform="translate(696.53 365.34) rotate(-25)" fill="#eb3d16" stroke="#fff" stroke-width="2"/>
    </g>
    <g transform="matrix(1, 0, 0, 1, 90.07, 53.42)" filter="url(#Path_3658)">
      <path id="Path_3658-2" data-name="Path 3658" d="M21.7,0,0,12.53l21.7,12.53V18.968H33.352V6.094H21.7Z" transform="matrix(0.8, -0.6, 0.6, 0.8, 651.41, 398.95)" fill="#eb3d16" stroke="#fff" stroke-width="2"/>
    </g>
    <g transform="matrix(1, 0, 0, 1, 90.07, 53.42)" filter="url(#Path_3659)">
      <path id="Path_3659-2" data-name="Path 3659" d="M21.7,0,0,12.53l21.7,12.53V18.968H33.352V6.094H21.7Z" transform="matrix(0.8, -0.6, 0.6, 0.8, 604.26, 433.95)" fill="#eb3d16" stroke="#fff" stroke-width="2"/>
    </g>
    <g transform="matrix(1, 0, 0, 1, 90.07, 53.42)" filter="url(#Path_3660)">
      <path id="Path_3660-2" data-name="Path 3660" d="M21.7,0,0,12.53l21.7,12.53V18.968H33.352V6.094H21.7Z" transform="matrix(0.98, -0.21, 0.21, 0.98, 552.49, 449.38)" fill="#eb3d16" stroke="#fff" stroke-width="2"/>
    </g>
    <g transform="matrix(1, 0, 0, 1, 90.07, 53.42)" filter="url(#Path_3661)">
      <path id="Path_3661-2" data-name="Path 3661" d="M21.7,0,0,12.53l21.7,12.53V18.968H33.352V6.094H21.7Z" transform="matrix(0.95, 0.31, -0.31, 0.95, 502.42, 431.1)" fill="#eb3d16" stroke="#fff" stroke-width="2"/>
    </g>
    <g transform="matrix(1, 0, 0, 1, 90.07, 53.42)" filter="url(#Path_3662)">
      <path id="Path_3662-2" data-name="Path 3662" d="M21.7,0,0,12.53l21.7,12.53V18.968H33.352V6.094H21.7Z" transform="translate(477.78 390.28) rotate(65)" fill="#eb3d16" stroke="#fff" stroke-width="2"/>
    </g>
    <g transform="matrix(1, 0, 0, 1, 90.07, 53.42)" filter="url(#Path_3663)">
      <path id="Path_3663-2" data-name="Path 3663" d="M21.7,0,0,12.53l21.7,12.53V18.968H33.352V6.094H21.7Z" transform="translate(455.42 335.28) rotate(65)" fill="#eb3d16" stroke="#fff" stroke-width="2"/>
    </g>
    <g transform="matrix(1, 0, 0, 1, 90.07, 53.42)" filter="url(#Path_3664)">
      <path id="Path_3664-2" data-name="Path 3664" d="M21.7,0,0,12.53l21.7,12.53V18.968H33.352V6.094H21.7Z" transform="translate(433.06 283.28) rotate(65)" fill="#eb3d16" stroke="#fff" stroke-width="2"/>
    </g>
    <g transform="matrix(1, 0, 0, 1, 90.07, 53.42)" filter="url(#Path_3665)">
      <path id="Path_3665-2" data-name="Path 3665" d="M21.7,0,0,12.53l21.7,12.53V18.968H33.352V6.094H21.7Z" transform="translate(399.98 235.09) rotate(51)" fill="#eb3d16" stroke="#fff" stroke-width="2"/>
    </g>
    <g transform="matrix(1, 0, 0, 1, 90.07, 53.42)" filter="url(#Path_3666)">
      <path id="Path_3666-2" data-name="Path 3666" d="M21.7,0,0,12.53l21.7,12.53V18.968H33.352V6.094H21.7Z" transform="matrix(0.89, 0.45, -0.45, 0.89, 345.57, 208.59)" fill="#eb3d16" stroke="#fff" stroke-width="2"/>
    </g>
    <g transform="matrix(1, 0, 0, 1, 90.07, 53.42)" filter="url(#Path_3667)">
      <path id="Path_3667-2" data-name="Path 3667" d="M21.7,0,0,12.53l21.7,12.53V18.968H33.352V6.094H21.7Z" transform="translate(284.98 205.81) rotate(4)" fill="#eb3d16" stroke="#fff" stroke-width="2"/>
    </g>
    <g transform="matrix(1, 0, 0, 1, 90.07, 53.42)" filter="url(#Path_3668)">
      <path id="Path_3668-2" data-name="Path 3668" d="M21.7,0,0,12.53l21.7,12.53V18.968H33.352V6.094H21.7Z" transform="translate(226.76 198.18) rotate(11)" fill="#eb3d16" stroke="#fff" stroke-width="2"/>
    </g>
    <g transform="matrix(1, 0, 0, 1, 90.07, 53.42)" filter="url(#Path_3669)">
      <path id="Path_3669-2" data-name="Path 3669" d="M21.7,0,0,12.53l21.7,12.53V18.968H33.352V6.094H21.7Z" transform="matrix(0.94, 0.34, -0.34, 0.94, 178.35, 184.05)" fill="#eb3d16" stroke="#fff" stroke-width="2"/>
    </g>
    <g transform="matrix(1, 0, 0, 1, 90.07, 53.42)" filter="url(#Path_3670)">
      <path id="Path_3670-2" data-name="Path 3670" d="M21.7,0,0,12.53l21.7,12.53V18.968H33.352V6.094H21.7Z" transform="matrix(0.73, 0.68, -0.68, 0.73, 135.12, 142.98)" fill="#eb3d16" stroke="#fff" stroke-width="2"/>
    </g>
    <g transform="matrix(1, 0, 0, 1, 90.07, 53.42)" filter="url(#Path_3671)">
      <path id="Path_3671-2" data-name="Path 3671" d="M21.7,0,0,12.53l21.7,12.53V18.968H33.352V6.094H21.7Z" transform="matrix(0.54, 0.84, -0.84, 0.54, 104.92, 94.71)" fill="#eb3d16" stroke="#fff" stroke-width="2"/>
    </g>
    <g transform="matrix(1, 0, 0, 1, 90.07, 53.42)" filter="url(#Path_3672)">
      <path id="Path_3672-2" data-name="Path 3672" d="M21.7,0,0,12.53l21.7,12.53V18.968H33.352V6.094H21.7Z" transform="matrix(0.54, 0.84, -0.84, 0.54, 75.92, 45.71)" fill="#eb3d16" stroke="#fff" stroke-width="2"/>
    </g>
    <g transform="matrix(1, 0, 0, 1, 90.07, 53.42)" filter="url(#Path_3673)">
      <path id="Path_3673-2" data-name="Path 3673" d="M21.7,0,0,12.53l21.7,12.53V18.968H33.352V6.094H21.7Z" transform="translate(26.37 8.58) rotate(36)" fill="#eb3d16" stroke="#fff" stroke-width="2"/>
    </g>
  </g>
</svg>
